<?xml version="1.0" standalone="no"?>
<!DOCTYPE svg PUBLIC "-//W3C//DTD SVG 20010904//EN"
 "http://www.w3.org/TR/2001/REC-SVG-20010904/DTD/svg10.dtd">
<svg version="1.0" xmlns="http://www.w3.org/2000/svg"
 width="1600.000000pt" height="1600.000000pt" viewBox="0 0 1600.000000 1600.000000"
 preserveAspectRatio="xMidYMid meet">
<metadata>
Created by potrace 1.11, written by Peter Selinger 2001-2013
</metadata>
<g transform="translate(0.000000,1600.000000) scale(0.100000,-0.100000)"
fill="#000000" stroke="none">
<path d="M3941 12674 c0 -11 3 -14 6 -6 3 7 2 16 -1 19 -3 4 -6 -2 -5 -13z"/>
<path d="M8783 12285 c-40 -28 -93 -53 -150 -70 -48 -15 -104 -33 -123 -40
-19 -7 -86 -21 -149 -30 -96 -15 -114 -16 -122 -4 -7 12 -9 12 -9 0 0 -19
-217 -9 -315 14 -117 28 -305 82 -416 121 -124 43 -157 42 -262 -9 -39 -19
-90 -40 -112 -47 -22 -7 -57 -21 -77 -31 -21 -11 -46 -19 -57 -19 -19 0 -68
-18 -114 -42 -11 -5 -21 -7 -24 -4 -3 2 -23 -2 -46 -10 -23 -8 -53 -12 -68 -9
-18 4 -30 1 -36 -7 -13 -21 -60 -38 -132 -48 -36 -5 -93 -13 -126 -19 -56 -10
-261 -35 -386 -48 -31 -3 -64 -1 -73 4 -26 15 -88 3 -93 -18 -3 -12 -19 -20
-46 -24 -64 -11 -198 -54 -237 -77 -30 -17 -46 -19 -105 -14 -38 3 -101 1
-140 -4 -97 -14 -255 -30 -349 -35 -64 -3 -86 -9 -115 -30 -21 -14 -50 -25
-66 -25 -16 0 -47 -6 -70 -14 -83 -29 -128 -40 -163 -40 -19 0 -30 -2 -23 -4
16 -5 -16 -22 -115 -60 -44 -17 -99 -40 -124 -51 -25 -11 -57 -21 -72 -21 -16
0 -28 -4 -28 -10 0 -15 -48 -42 -75 -42 -14 0 -32 -9 -39 -19 -7 -10 -15 -16
-18 -13 -3 3 -18 -6 -34 -21 -15 -14 -34 -23 -43 -20 -9 2 -34 -6 -56 -20 -22
-13 -35 -25 -30 -25 24 -3 -80 -28 -180 -44 -60 -9 -135 -23 -165 -31 -30 -7
-77 -19 -105 -25 -27 -6 -64 -15 -82 -19 -39 -10 -195 -77 -242 -103 -19 -11
-73 -33 -120 -50 -47 -16 -99 -36 -115 -45 -16 -9 -26 -11 -22 -5 5 8 1 10 -8
6 -9 -3 -16 -9 -16 -13 0 -12 -69 -33 -81 -25 -8 5 -9 3 -4 -6 6 -10 2 -11
-19 -6 -19 5 -26 3 -26 -9 0 -8 -6 -15 -12 -15 -7 0 -24 -6 -38 -13 -48 -25
-180 -68 -190 -62 -5 3 -10 2 -10 -2 0 -16 -284 -128 -300 -118 -4 2 -15 -4
-25 -15 -9 -10 -30 -22 -46 -25 -16 -4 -29 -13 -29 -21 0 -8 25 -62 55 -120
30 -58 53 -115 52 -127 -1 -12 4 -22 10 -22 18 0 46 -43 37 -57 -4 -6 -3 -8 3
-5 6 4 8 -22 5 -68 -6 -121 17 -182 124 -332 29 -40 64 -105 79 -145 14 -40
43 -115 63 -167 20 -52 41 -106 46 -120 12 -37 37 -102 47 -126 5 -11 11 -29
12 -40 4 -22 12 -40 49 -125 40 -89 47 -112 52 -183 4 -38 14 -83 23 -100 10
-18 17 -34 18 -37 1 -17 92 -107 125 -124 21 -11 41 -10 115 2 50 8 92 18 95
22 6 10 74 20 160 24 36 2 130 7 210 11 119 6 155 5 200 -9 87 -25 375 -4 455
33 38 18 136 51 200 67 43 11 138 5 153 -10 10 -10 33 -109 35 -153 0 -7 4
-13 9 -13 5 0 7 -4 3 -9 -3 -6 2 -14 11 -19 9 -5 15 -11 14 -13 -1 -2 1 -16 5
-32 4 -15 2 -47 -4 -70 -7 -23 -18 -69 -26 -102 -13 -55 -25 -108 -71 -295 -9
-36 -18 -78 -20 -95 -9 -67 -66 -341 -74 -360 -16 -35 -31 -104 -35 -158 -5
-80 -24 -199 -35 -211 -5 -7 -11 -43 -14 -81 -6 -82 -19 -166 -28 -181 -10
-15 -22 -440 -22 -774 -1 -248 -4 -301 -23 -410 -29 -166 -50 -332 -57 -455
-4 -55 -11 -179 -17 -275 -6 -96 -14 -316 -18 -488 -6 -258 -9 -315 -21 -322
-10 -7 -11 -10 -2 -10 9 0 12 -27 12 -100 0 -92 -24 -392 -35 -450 -3 -14 -7
-120 -9 -236 -4 -222 -11 -263 -58 -305 -10 -9 -18 -26 -18 -37 0 -11 -5 -24
-11 -28 -6 -3 -9 -19 -7 -35 3 -16 -1 -30 -7 -33 -7 -2 -15 -14 -18 -25 -4
-16 0 -21 16 -21 21 -1 21 -2 4 -14 -15 -12 -15 -15 -3 -25 8 -7 12 -19 9 -27
-7 -20 76 -82 112 -83 11 -1 63 -14 105 -26 58 -17 133 -28 105 -15 -21 9 78
5 145 -7 19 -4 40 -5 47 -4 13 2 151 -43 160 -53 4 -3 17 -6 30 -6 14 0 33 -5
44 -10 24 -13 171 -56 224 -65 22 -4 52 -14 67 -21 15 -8 37 -14 49 -14 12 0
36 -9 53 -19 17 -10 56 -26 86 -34 47 -13 85 -22 220 -51 23 -5 144 -52 174
-68 35 -18 79 -28 156 -34 41 -3 93 -7 115 -10 22 -2 69 -7 105 -9 36 -3 94
-8 130 -11 36 -3 74 -6 84 -5 11 0 53 -9 95 -21 92 -25 229 -28 446 -8 161 14
310 21 444 19 54 0 86 4 91 11 10 15 133 31 141 18 4 -6 9 -6 14 2 4 6 25 10
51 9 29 -2 49 2 62 14 20 18 47 23 37 7 -8 -13 58 0 67 14 4 7 15 6 32 -2 17
-8 26 -8 26 -1 0 6 5 7 10 4 6 -3 16 -3 23 2 13 8 43 10 247 17 74 2 143 7
153 11 9 4 17 3 17 -2 0 -4 20 -7 45 -5 25 2 45 7 45 11 0 4 25 7 55 7 34 1
62 7 73 16 21 19 233 31 302 18 25 -5 167 -9 315 -9 149 0 279 0 290 -1 51 -1
61 0 81 10 17 9 28 8 58 -9 45 -26 52 -26 81 -3 22 17 44 18 317 14 374 -5
383 -5 447 4 46 6 56 4 68 -11 12 -18 13 -17 13 7 0 22 4 26 25 23 14 -1 25 1
25 4 0 3 42 6 94 5 81 -2 95 1 99 15 3 13 25 20 85 30 44 7 85 10 90 7 6 -3
12 -1 14 5 2 6 22 13 43 15 22 2 69 12 105 23 42 13 68 17 74 11 15 -15 29
-12 23 4 -4 10 5 16 31 21 20 3 76 18 124 31 48 14 93 24 100 23 7 -1 26 3 41
9 16 7 32 10 37 7 5 -3 10 -2 12 2 4 10 133 53 173 58 17 2 32 4 35 5 3 2 9 2
14 1 4 -1 14 4 22 10 8 7 17 9 20 6 4 -3 13 0 21 8 14 15 39 19 76 15 10 -1
24 5 30 13 18 23 148 59 164 45 11 -8 12 -7 6 7 -5 14 -3 17 10 12 8 -3 34
-11 56 -17 23 -6 40 -14 40 -18 -3 -19 3 -22 22 -12 12 7 18 18 15 26 -3 8 -1
14 4 14 6 0 9 3 8 7 0 5 2 16 6 25 9 20 159 85 164 70 1 -5 16 4 32 20 27 26
30 36 30 89 0 51 -4 64 -25 85 -14 14 -22 30 -19 36 4 7 2 8 -4 4 -7 -4 -12
-1 -12 9 0 9 -8 32 -18 53 -22 44 -29 122 -12 122 10 0 10 3 1 14 -13 15 -18
136 -7 155 4 6 2 11 -4 11 -6 0 -9 18 -8 43 1 23 -2 138 -7 256 -6 161 -5 212
3 207 15 -9 16 16 1 31 -7 7 -15 74 -19 160 -5 81 -11 168 -14 193 -4 25 -3
39 0 33 10 -23 24 -14 24 16 0 16 -8 37 -17 46 -9 10 -18 29 -20 44 -14 125
-26 258 -38 436 -8 116 -19 253 -24 305 -6 52 -17 158 -25 235 -9 77 -18 190
-20 250 -5 113 -23 359 -31 430 -8 70 -25 284 -36 445 -11 185 -14 207 -28
242 -5 15 -15 85 -21 155 -10 115 -30 268 -59 438 -6 33 -12 78 -15 100 -2 22
-7 50 -9 61 -6 25 -13 68 -22 139 -3 28 -11 73 -16 100 -5 28 -13 91 -19 140
-5 50 -12 101 -15 115 -15 69 -34 204 -39 278 -6 78 -5 84 18 107 14 14 37 25
53 26 15 0 134 2 263 3 129 1 242 6 250 9 8 4 33 5 55 3 22 -3 143 -5 269 -6
216 0 379 12 401 32 16 14 33 9 40 -13 6 -17 14 -20 48 -17 38 3 42 6 45 31 3
27 4 27 55 21 51 -6 101 -16 144 -29 25 -8 61 24 87 80 21 45 56 215 56 276 0
44 15 96 31 109 3 3 9 39 12 80 5 67 17 116 63 256 7 23 20 83 29 133 18 106
30 142 46 139 21 -5 35 30 21 52 -10 16 -9 26 5 54 9 19 21 32 26 29 6 -4 8 0
4 10 -8 22 33 147 49 147 7 0 16 9 19 21 9 29 -4 131 -16 123 -5 -3 -7 -11 -3
-17 3 -7 -2 -3 -10 7 -14 17 -16 18 -16 3 0 -17 -11 -22 -22 -11 -8 8 50 187
64 199 7 6 14 17 16 25 2 8 7 17 10 20 4 3 7 10 7 15 1 17 29 70 42 78 7 4 10
14 6 23 -4 10 2 17 17 21 15 4 20 11 16 25 -6 25 3 50 16 42 6 -4 5 2 -1 14
-15 27 -50 52 -76 52 -16 0 -17 2 -5 10 18 11 24 10 -97 15 -93 4 -106 9 -98
36 6 17 3 19 -19 13 -25 -6 -116 31 -116 48 0 4 -6 8 -14 8 -26 0 -146 56
-139 65 5 4 3 5 -4 1 -14 -8 -93 30 -93 44 0 6 -5 10 -11 10 -6 0 -52 19 -102
43 -51 24 -110 49 -132 56 -22 8 -98 42 -170 77 -114 55 -206 88 -335 121 -22
6 -35 15 -34 25 1 12 -12 18 -50 23 -57 7 -62 6 -58 -12 4 -16 7 -16 -101 2
-171 28 -308 76 -654 228 -92 41 -232 102 -310 136 -114 50 -141 66 -136 79 4
14 3 14 -5 3 -9 -13 -21 -11 -79 11 -57 22 -90 27 -208 32 -182 8 -282 15
-380 26 -44 5 -123 12 -175 15 -113 8 -125 9 -305 29 -247 27 -319 36 -380 47
-33 6 -67 11 -75 11 -8 0 -72 9 -142 19 -69 10 -159 23 -200 28 -115 14 -271
79 -350 146 -16 14 -35 25 -41 24 -7 0 -40 -20 -74 -44z"/>
<path d="M8258 12143 c7 -3 16 -2 19 1 4 3 -2 6 -13 5 -11 0 -14 -3 -6 -6z"/>
<path d="M4542 11775 c0 -16 2 -22 5 -12 2 9 2 23 0 30 -3 6 -5 -1 -5 -18z"/>
<path d="M4260 11590 c0 -5 5 -10 10 -10 6 0 10 5 10 10 0 6 -4 10 -10 10 -5
0 -10 -4 -10 -10z"/>
<path d="M2000 10284 c0 -21 4 -25 18 -19 9 3 29 9 45 12 36 7 34 19 -4 27
-52 10 -59 8 -59 -20z"/>
<path d="M11841 8174 c0 -11 3 -14 6 -6 3 7 2 16 -1 19 -3 4 -6 -2 -5 -13z"/>
<path d="M12164 6609 c-7 -11 22 -47 30 -38 8 7 -5 49 -15 49 -4 0 -11 -5 -15
-11z"/>
<path d="M12207 4539 c4 -13 8 -18 11 -10 2 7 -1 18 -6 23 -8 8 -9 4 -5 -13z"/>
<path d="M4030 3835 c0 -25 14 -34 24 -16 8 12 -3 41 -15 41 -5 0 -9 -11 -9
-25z"/>
<path d="M4025 3680 c-3 -5 -2 -10 4 -10 5 0 13 5 16 10 3 6 2 10 -4 10 -5 0
-13 -4 -16 -10z"/>
<path d="M12285 3483 c-8 -23 -6 -29 6 -13 9 12 10 11 6 -7 -3 -13 -2 -23 3
-23 4 0 10 13 12 28 4 30 -16 41 -27 15z"/>
<path d="M3950 3324 c0 -19 -5 -44 -10 -54 -8 -15 -7 -18 2 -15 12 5 38 70 38
95 0 5 -7 10 -15 10 -11 0 -15 -11 -15 -36z"/>
<path d="M3911 3144 c0 -11 3 -14 6 -6 3 7 2 16 -1 19 -3 4 -6 -2 -5 -13z"/>
<path d="M4378 2993 c7 -3 16 -2 19 1 4 3 -2 6 -13 5 -11 0 -14 -3 -6 -6z"/>
<path d="M8745 2470 c3 -5 11 -10 16 -10 6 0 7 5 4 10 -3 6 -11 10 -16 10 -6
0 -7 -4 -4 -10z"/>
<path d="M5640 2392 c0 -5 7 -13 16 -16 22 -8 24 -8 24 6 0 6 -3 8 -7 5 -3 -4
-12 -2 -20 4 -8 7 -13 8 -13 1z"/>
<path d="M7570 2001 c0 -5 7 -11 15 -15 9 -3 15 0 15 9 0 8 -7 15 -15 15 -8 0
-15 -4 -15 -9z"/>
<path d="M7635 1971 c-3 -5 -1 -12 5 -16 5 -3 10 1 10 9 0 18 -6 21 -15 7z"/>
</g>
</svg>
